<svg width="24" height="24" viewBox="0 0 24 24" fill="none" xmlns="http://www.w3.org/2000/svg">
<path d="M13.9109 4.65C13.9109 3.81457 13.5886 3.01335 13.015 2.42261C12.4414 1.83187 11.6634 1.5 10.8521 1.5C10.0409 1.5 9.26289 1.83187 8.68926 2.42261C8.11562 3.01335 7.79336 3.81457 7.79336 4.65V11.4855L6.39652 10.698C5.83489 10.3825 5.18538 10.2743 4.5558 10.3913C3.92623 10.5084 3.35445 10.8436 2.93536 11.3414C2.51628 11.8392 2.2751 12.4696 2.25185 13.128C2.22861 13.7864 2.42469 14.4332 2.80756 14.961L8.30316 22.5H19.9061L21.15 12.2835L13.9109 10.1835V4.65ZM18.9069 13.8165L18.1116 20.4H9.32275L4.43891 13.6905C4.31974 13.5446 4.25603 13.3591 4.2596 13.1684C4.26317 12.9778 4.33378 12.795 4.45832 12.6539C4.58286 12.5128 4.75288 12.4231 4.93682 12.4013C5.12076 12.3795 5.30612 12.4272 5.4585 12.5355L9.83254 15.0345V4.65C9.83254 4.37152 9.93996 4.10445 10.1312 3.90754C10.3224 3.71062 10.5817 3.6 10.8521 3.6C11.1225 3.6 11.3819 3.71062 11.5731 3.90754C11.7643 4.10445 11.8717 4.37152 11.8717 4.65V11.7375L18.9069 13.8165Z" fill="#758291"/>
</svg>
