<svg width="184" height="40" viewBox="0 0 184 40" fill="none" xmlns="http://www.w3.org/2000/svg">
<path d="M5.65332 12V3.89941H8.61328V2.13574H0.628906V3.89941H3.58887V12H5.65332ZM16.1379 4.45996H14.1486V8.80762C14.1486 9.8125 13.6154 10.4346 12.6242 10.4346C11.7082 10.4346 11.2365 9.90137 11.2365 8.8623V4.45996H9.24727V9.375C9.24727 11.125 10.259 12.1641 11.8859 12.1641C13.0275 12.1641 13.7316 11.665 14.0871 10.79H14.2102V12H16.1379V4.45996ZM11.0451 3.27734C11.633 3.27734 12.1115 2.8125 12.1115 2.21094C12.1115 1.60938 11.633 1.1377 11.0451 1.1377C10.4641 1.1377 9.98555 1.60938 9.98555 2.21094C9.98555 2.8125 10.4641 3.27734 11.0451 3.27734ZM14.34 3.27734C14.9279 3.27734 15.3996 2.8125 15.3996 2.21094C15.3996 1.60938 14.9279 1.1377 14.34 1.1377C13.7521 1.1377 13.2736 1.60938 13.2736 2.21094C13.2736 2.8125 13.7521 3.27734 14.34 3.27734ZM17.934 12H19.9232V7.82324C19.9232 6.76367 20.6684 6.12109 21.7553 6.12109C22.0766 6.12109 22.5414 6.18262 22.6986 6.24414V4.43262C22.5277 4.37109 22.1928 4.33691 21.9193 4.33691C20.9623 4.33691 20.183 4.91113 19.9848 5.66309H19.8617V4.45996H17.934V12ZM26.0123 7.40625H25.8893V1.58203H23.9V12H25.8893V9.49805L26.4361 8.9375L28.6373 12H30.9957L27.9264 7.69336L30.7975 4.45996H28.5348L26.0123 7.40625ZM35.6611 2.13574V12H39.5439C42.4971 12 44.1719 10.2021 44.1719 6.99609C44.1719 3.90625 42.4766 2.13574 39.5439 2.13574H35.6611ZM37.7256 3.89941H39.2158C41.0068 3.89941 42.0664 5.03418 42.0664 7.03027C42.0664 9.11523 41.041 10.2363 39.2158 10.2363H37.7256V3.89941ZM45.7492 12H47.7385V4.45996H45.7492V12ZM46.7473 3.33203C47.3693 3.33203 47.8752 2.82617 47.8752 2.19043C47.8752 1.55469 47.3693 1.05566 46.7473 1.05566C46.132 1.05566 45.6193 1.55469 45.6193 2.19043C45.6193 2.82617 46.132 3.33203 46.7473 3.33203ZM49.6234 12H51.6127V1.58203H49.6234V12ZM59.1561 12V9.02637L60.1336 7.87109L62.9979 12H65.4725L61.6238 6.46289L65.2195 2.13574H62.9227L59.2791 6.53125H59.1561V2.13574H57.0916V12H59.1561ZM72.9766 4.45996H70.9873V8.80762C70.9873 9.8125 70.4541 10.4346 69.4629 10.4346C68.5469 10.4346 68.0752 9.90137 68.0752 8.8623V4.45996H66.0859V9.375C66.0859 11.125 67.0977 12.1641 68.7246 12.1641C69.8662 12.1641 70.5703 11.665 70.9258 10.79H71.0488V12H72.9766V4.45996ZM74.7727 12H76.7619V7.82324C76.7619 6.76367 77.507 6.12109 78.5939 6.12109C78.9152 6.12109 79.3801 6.18262 79.5373 6.24414V4.43262C79.3664 4.37109 79.0314 4.33691 78.758 4.33691C77.801 4.33691 77.0217 4.91113 76.8234 5.66309H76.7004V4.45996H74.7727V12ZM87.4926 4.45996H85.5033V8.80762C85.5033 9.8125 84.9701 10.4346 83.9789 10.4346C83.0629 10.4346 82.5912 9.90137 82.5912 8.8623V4.45996H80.602V9.375C80.602 11.125 81.6137 12.1641 83.2406 12.1641C84.3822 12.1641 85.0863 11.665 85.4418 10.79H85.5648V12H87.4926V4.45996ZM89.2887 12H91.2779V7.46094C91.2779 6.62012 91.8316 6.01172 92.6109 6.01172C93.3902 6.01172 93.8551 6.46973 93.8551 7.26953V12H95.7691V7.38574C95.7691 6.58594 96.2887 6.01172 97.0953 6.01172C97.9361 6.01172 98.3531 6.45605 98.3531 7.35156V12H100.342V6.8252C100.342 5.27344 99.4059 4.2959 97.902 4.2959C96.8492 4.2959 95.9811 4.84961 95.6324 5.69043H95.5094C95.2086 4.81543 94.484 4.2959 93.4244 4.2959C92.4332 4.2959 91.6471 4.8291 91.3395 5.69043H91.2164V4.45996H89.2887V12ZM108.899 4.45996H106.91V8.80762C106.91 9.8125 106.377 10.4346 105.386 10.4346C104.47 10.4346 103.998 9.90137 103.998 8.8623V4.45996H102.009V9.375C102.009 11.125 103.02 12.1641 104.647 12.1641C105.789 12.1641 106.493 11.665 106.848 10.79H106.971V12H108.899V4.45996ZM118.733 12C120.838 12 122.144 10.9062 122.144 9.17676C122.144 7.90527 121.194 6.9209 119.888 6.8252V6.70215C120.9 6.55176 121.672 5.64258 121.672 4.59668C121.672 3.07227 120.53 2.13574 118.616 2.13574H114.303V12H118.733ZM116.367 3.71484H118.09C119.074 3.71484 119.642 4.18652 119.642 4.97266C119.642 5.76562 119.033 6.22363 117.919 6.22363H116.367V3.71484ZM116.367 10.4209V7.61816H118.158C119.375 7.61816 120.038 8.09668 120.038 8.99902C120.038 9.92188 119.396 10.4209 118.206 10.4209H116.367ZM126.332 10.6191C125.642 10.6191 125.157 10.2773 125.157 9.7168C125.157 9.17676 125.574 8.86914 126.428 8.80762L127.953 8.71191V9.26562C127.953 10.0312 127.255 10.6191 126.332 10.6191ZM125.676 12.1162C126.654 12.1162 127.474 11.7061 127.864 11.0156H127.987V12H129.914V6.85254C129.914 5.23926 128.787 4.2959 126.79 4.2959C124.897 4.2959 123.619 5.1709 123.489 6.56543H125.321C125.485 6.11426 125.963 5.86816 126.681 5.86816C127.501 5.86816 127.953 6.22363 127.953 6.85254V7.46777L126.127 7.57715C124.254 7.68652 123.208 8.47949 123.208 9.84668C123.208 11.2275 124.227 12.1162 125.676 12.1162ZM134.431 7.30371C133.734 7.14648 133.413 6.9209 133.413 6.55176C133.413 6.07324 133.939 5.75195 134.65 5.75195C135.388 5.75195 135.846 6.05273 135.949 6.53809H137.788C137.678 5.0957 136.55 4.2959 134.636 4.2959C132.756 4.2959 131.499 5.24609 131.499 6.6748C131.499 7.83691 132.21 8.53418 133.672 8.85547L135.04 9.16309C135.703 9.30664 135.99 9.53223 135.99 9.90137C135.99 10.3867 135.457 10.708 134.684 10.708C133.891 10.708 133.406 10.4141 133.255 9.90137H131.314C131.437 11.1865 132.401 11.9727 134.007 12.1367L133.577 12.8271V13.6338H134.028C134.623 13.6338 134.923 13.7227 134.923 13.9961C134.923 14.2969 134.513 14.3857 134.11 14.3857C133.789 14.3857 133.467 14.3311 133.365 14.2969V15.2402C133.638 15.3086 134.007 15.3564 134.363 15.3564C135.477 15.3564 136.291 14.9053 136.291 13.9482C136.291 13.21 135.716 12.7793 134.889 12.7246L135.265 12.1299C136.899 11.9453 137.965 11.0156 137.965 9.67578C137.965 8.54785 137.309 7.93262 135.846 7.61133L134.431 7.30371ZM141.58 7.40625H141.457V1.58203H139.468V12H141.457V9.49805L142.004 8.9375L144.205 12H146.563L143.494 7.69336L146.365 4.45996H144.102L141.58 7.40625ZM150.068 10.6191C149.378 10.6191 148.893 10.2773 148.893 9.7168C148.893 9.17676 149.31 8.86914 150.164 8.80762L151.688 8.71191V9.26562C151.688 10.0312 150.991 10.6191 150.068 10.6191ZM149.412 12.1162C150.39 12.1162 151.21 11.7061 151.6 11.0156H151.723V12H153.65V6.85254C153.65 5.23926 152.522 4.2959 150.526 4.2959C148.633 4.2959 147.354 5.1709 147.225 6.56543H149.057C149.221 6.11426 149.699 5.86816 150.417 5.86816C151.237 5.86816 151.688 6.22363 151.688 6.85254V7.46777L149.863 7.57715C147.99 7.68652 146.944 8.47949 146.944 9.84668C146.944 11.2275 147.963 12.1162 149.412 12.1162ZM155.405 12H157.395V7.65234C157.395 6.66113 157.962 6.01172 158.885 6.01172C159.828 6.01172 160.273 6.55859 160.273 7.59766V12H162.262V7.12598C162.262 5.32129 161.36 4.2959 159.685 4.2959C158.571 4.2959 157.805 4.82227 157.456 5.66992H157.333V4.45996H155.405V12ZM164.065 12H166.054V1.58203H164.065V12ZM167.939 12H169.928V4.45996H167.939V12ZM175.095 10.3184C174.014 10.3184 173.399 9.49121 173.399 8.1582C173.399 6.83887 174.021 6.00488 175.095 6.00488C176.168 6.00488 176.817 6.83887 176.817 8.16504C176.817 9.49121 176.175 10.3184 175.095 10.3184ZM175.067 14.8574C177.344 14.8574 178.786 13.7432 178.786 11.9727V4.45996H176.858V5.66992H176.735C176.332 4.84277 175.464 4.33691 174.445 4.33691C172.531 4.33691 171.355 5.82715 171.355 8.16504C171.355 10.4346 172.524 11.8906 174.404 11.8906C175.464 11.8906 176.257 11.4668 176.674 10.6738H176.797V12.0684C176.797 12.916 176.175 13.4082 175.108 13.4082C174.247 13.4082 173.686 13.1143 173.584 12.6494H171.615C171.738 13.9756 173.064 14.8574 175.067 14.8574ZM172.449 1.02832C172.449 2.46387 173.433 3.46875 175.129 3.46875C176.824 3.46875 177.808 2.46387 177.808 1.02832H176.393C176.38 1.79395 175.942 2.28613 175.129 2.28613C174.315 2.28613 173.878 1.79395 173.864 1.02832H172.449ZM180.596 12H182.585V4.45996H180.596V12Z" fill="white"/>
<path d="M85.2963 30.6836H84.2182L82.4897 35.8867H82.3959L80.6674 30.6836H79.5893L81.9272 37H82.9584L85.2963 30.6836ZM86.3971 37.0586C86.819 37.0586 87.1588 36.7129 87.1588 36.2969C87.1588 35.875 86.819 35.5352 86.3971 35.5352C85.9811 35.5352 85.6354 35.875 85.6354 36.2969C85.6354 36.7129 85.9811 37.0586 86.3971 37.0586ZM90.533 37H91.5877V28.5449H90.5389L88.2889 30.1621V31.2754L90.4393 29.7168H90.533V37ZM94.458 37.0586C94.8799 37.0586 95.2198 36.7129 95.2198 36.2969C95.2198 35.875 94.8799 35.5352 94.458 35.5352C94.042 35.5352 93.6963 35.875 93.6963 36.2969C93.6963 36.7129 94.042 37.0586 94.458 37.0586ZM99.3557 37.1992C101.254 37.1992 102.344 35.5938 102.344 32.7871C102.344 29.9863 101.237 28.3457 99.3557 28.3457C97.4631 28.3457 96.3557 29.9805 96.3557 32.7695C96.3557 35.582 97.4514 37.1992 99.3557 37.1992ZM99.3557 36.2793C98.1077 36.2793 97.4163 35.0312 97.4163 32.7695C97.4163 30.5371 98.1194 29.2715 99.3557 29.2715C100.592 29.2715 101.283 30.5254 101.283 32.7695C101.283 35.0371 100.604 36.2793 99.3557 36.2793Z" fill="#F3A5B1"/>
</svg>
