<svg width="48" height="48" viewBox="0 0 48 48" fill="none" xmlns="http://www.w3.org/2000/svg">
<path fill-rule="evenodd" clip-rule="evenodd" d="M14 8C13.4696 8 12.9609 8.21071 12.5858 8.58579C12.2107 8.96086 12 9.46957 12 10V38.1136L22.8375 30.3725C23.5329 29.8758 24.4671 29.8758 25.1625 30.3725L36 38.1136V10C36 9.46957 35.7893 8.96086 35.4142 8.58579C35.0392 8.21071 34.5304 8 34 8H14ZM9.75737 5.75736C10.8826 4.63214 12.4087 4 14 4H34C35.5913 4 37.1174 4.63214 38.2427 5.75736C39.3679 6.88258 40 8.4087 40 10V42C40 42.7492 39.5813 43.4355 38.9152 43.7783C38.249 44.1211 37.4472 44.0629 36.8375 43.6275L24 34.4578L11.1625 43.6275C10.5529 44.0629 9.75099 44.1211 9.08485 43.7783C8.41871 43.4355 8.00002 42.7492 8.00002 42V10C8.00002 8.4087 8.63216 6.88258 9.75737 5.75736Z" fill="#C6CBD2"/>
</svg>
