<svg width="28" height="28" viewBox="0 0 28 28" fill="none" xmlns="http://www.w3.org/2000/svg">
<path fill-rule="evenodd" clip-rule="evenodd" d="M11.6666 21C6.51199 21 2.33331 16.8213 2.33331 11.6667C2.33331 6.51202 6.51199 2.33334 11.6666 2.33334C16.8213 2.33334 21 6.51202 21 11.6667C21 13.8235 20.2684 15.8095 19.0398 17.3899L25.3249 23.6751L23.675 25.325L17.3899 19.0398C15.8094 20.2684 13.8235 21 11.6666 21ZM18.6667 11.6667C18.6667 15.5327 15.5326 18.6667 11.6667 18.6667C7.80066 18.6667 4.66665 15.5327 4.66665 11.6667C4.66665 7.80069 7.80066 4.66668 11.6667 4.66668C15.5326 4.66668 18.6667 7.80069 18.6667 11.6667Z" fill="white"/>
</svg>
